# MagicaVoxel @ Ephtracy

# group
o 

# material
mtllib TIle.mtl
usemtl palette

# normals
vn -1 0 0
vn 1 0 0
vn 0 0 1
vn 0 0 -1
vn 0 -1 0
vn 0 1 0

# texcoords
vt 0.0292969 0.5
vt 0.720703 0.5
vt 0.724609 0.5
vt 0.748047 0.5

# verts
v -0.5 0 0.5
v -0.5 0 -0.5
v -0.5 0.7 0.2
v -0.5 0.7 0
v -0.5 0.7 -0.3
v -0.5 0.7 -0.4
v -0.5 0.8 0.4
v -0.5 0.8 0.3
v -0.5 0.8 -0.1
v -0.5 0.8 -0.3
v -0.5 0.8 -0.4
v -0.5 0.8 -0.5
v -0.5 0.9 0.5
v -0.5 0.9 0.4
v -0.5 0.9 0.3
v -0.5 0.9 0.2
v -0.5 0.9 0.1
v -0.5 0.9 0
v -0.5 0.9 -0.1
v -0.5 0.9 -0.2
v -0.5 0.9 -0.3
v -0.5 0.9 -0.5
v -0.5 1 0.5
v -0.5 1 0.3
v -0.5 1 0.1
v -0.5 1 0
v -0.5 1 -0.2
v -0.5 1 -0.3
v -0.5 1 -0.5
v 0.5 0 0.5
v 0.5 0 -0.5
v 0.5 0.6 -0.4
v 0.5 0.6 -0.5
v 0.5 0.7 0.4
v 0.5 0.7 0.1
v 0.5 0.7 -0.3
v 0.5 0.7 -0.4
v 0.5 0.8 0
v 0.5 0.8 -0.2
v 0.5 0.9 0.5
v 0.5 0.9 0.4
v 0.5 0.9 0.1
v 0.5 0.9 0
v 0.5 0.9 -0.2
v 0.5 0.9 -0.3
v 0.5 0.9 -0.4
v 0.5 0.9 -0.5
v 0.5 1 0.5
v 0.5 1 0
v 0.5 1 -0.2
v 0.5 1 -0.3
v 0.5 1 -0.4
v 0.5 1 -0.5
v -0.5 0 0.5
v -0.5 0.9 0.5
v -0.5 1 0.5
v -0.4 0.7 0.5
v -0.4 0.9 0.5
v -0.4 1 0.5
v -0.3 0.7 0.5
v -0.3 0.9 0.5
v -0.2 0.8 0.5
v -0.2 0.9 0.5
v -0.2 1 0.5
v -0.1 0.9 0.5
v -0.1 1 0.5
v 0.1 0.7 0.5
v 0.1 0.8 0.5
v 0.1 0.9 0.5
v 0.1 1 0.5
v 0.3 0.7 0.5
v 0.3 0.9 0.5
v 0.3 1 0.5
v 0.4 0.9 0.5
v 0.4 1 0.5
v 0.5 0 0.5
v 0.5 0.9 0.5
v 0.5 1 0.5
v -0.5 0 -0.5
v -0.5 0.8 -0.5
v -0.5 0.9 -0.5
v -0.5 1 -0.5
v -0.4 0.7 -0.5
v -0.4 0.8 -0.5
v -0.4 0.9 -0.5
v -0.4 1 -0.5
v 0 0.9 -0.5
v 0 1 -0.5
v 0.1 0.6 -0.5
v 0.1 0.7 -0.5
v 0.2 0.6 -0.5
v 0.2 0.9 -0.5
v 0.2 1 -0.5
v 0.3 0.7 -0.5
v 0.3 0.9 -0.5
v 0.4 0.6 -0.5
v 0.4 0.7 -0.5
v 0.5 0 -0.5
v 0.5 0.6 -0.5
v 0.5 0.9 -0.5
v 0.5 1 -0.5
v -0.5 0 0.5
v 0.5 0 0.5
v -0.5 0 -0.5
v 0.5 0 -0.5
v -0.5 1 0.5
v -0.4 1 0.5
v -0.2 1 0.5
v -0.1 1 0.5
v 0.1 1 0.5
v 0.3 1 0.5
v 0.4 1 0.5
v 0.5 1 0.5
v -0.2 1 0.4
v -0.1 1 0.4
v 0.3 1 0.4
v 0.4 1 0.4
v -0.5 1 0.3
v -0.4 1 0.3
v -0.3 1 0.3
v -0.2 1 0.3
v -0.1 1 0.3
v 0.1 1 0.3
v -0.4 1 0.2
v -0.3 1 0.2
v -0.2 1 0.2
v -0.1 1 0.2
v 0 1 0.2
v 0.1 1 0.2
v 0.4 1 0.2
v -0.5 1 0.1
v -0.4 1 0.1
v -0.3 1 0.1
v 0 1 0.1
v 0.1 1 0.1
v 0.2 1 0.1
v 0.3 1 0.1
v 0.4 1 0.1
v -0.5 1 0
v -0.4 1 0
v 0.1 1 0
v 0.2 1 0
v 0.3 1 0
v 0.4 1 0
v 0.5 1 0
v 0 1 -0.1
v 0.1 1 -0.1
v -0.5 1 -0.2
v -0.4 1 -0.2
v -0.2 1 -0.2
v -0.1 1 -0.2
v 0 1 -0.2
v 0.1 1 -0.2
v 0.2 1 -0.2
v 0.3 1 -0.2
v 0.5 1 -0.2
v -0.5 1 -0.3
v -0.4 1 -0.3
v -0.3 1 -0.3
v -0.2 1 -0.3
v 0 1 -0.3
v 0.1 1 -0.3
v 0.4 1 -0.3
v 0.5 1 -0.3
v -0.4 1 -0.4
v -0.3 1 -0.4
v -0.2 1 -0.4
v 0.2 1 -0.4
v 0.3 1 -0.4
v 0.4 1 -0.4
v 0.5 1 -0.4
v -0.5 1 -0.5
v -0.4 1 -0.5
v 0 1 -0.5
v 0.2 1 -0.5
v 0.5 1 -0.5

# faces
f 3/1/1 2/1/1 1/1/1
f 4/1/1 2/1/1 3/1/1
f 5/1/1 2/1/1 4/1/1
f 6/1/1 2/1/1 5/1/1
f 7/1/1 3/1/1 1/1/1
f 8/1/1 3/1/1 7/1/1
f 9/1/1 5/1/1 4/1/1
f 10/3/1 6/3/1 5/3/1
f 10/1/1 5/1/1 9/1/1
f 11/1/1 2/1/1 6/1/1
f 11/3/1 6/3/1 10/3/1
f 12/1/1 2/1/1 11/1/1
f 13/1/1 7/1/1 1/1/1
f 14/3/1 8/3/1 7/3/1
f 14/1/1 7/1/1 13/1/1
f 15/1/1 3/1/1 8/1/1
f 15/3/1 8/3/1 14/3/1
f 16/3/1 4/3/1 3/3/1
f 16/1/1 3/1/1 15/1/1
f 17/3/1 4/3/1 16/3/1
f 18/1/1 9/1/1 4/1/1
f 18/3/1 4/3/1 17/3/1
f 19/3/1 10/3/1 9/3/1
f 19/1/1 9/1/1 18/1/1
f 19/3/1 11/3/1 10/3/1
f 19/3/1 12/3/1 11/3/1
f 20/3/1 12/3/1 19/3/1
f 21/3/1 12/3/1 20/3/1
f 22/3/1 12/3/1 21/3/1
f 23/3/1 15/3/1 14/3/1
f 23/3/1 14/3/1 13/3/1
f 24/2/1 17/2/1 16/2/1
f 24/3/1 15/3/1 23/3/1
f 24/2/1 16/2/1 15/2/1
f 25/3/1 18/3/1 17/3/1
f 25/2/1 17/2/1 24/2/1
f 26/2/1 19/2/1 18/2/1
f 26/3/1 18/3/1 25/3/1
f 26/2/1 20/2/1 19/2/1
f 27/4/1 21/4/1 20/4/1
f 27/2/1 20/2/1 26/2/1
f 28/2/1 22/2/1 21/2/1
f 28/4/1 21/4/1 27/4/1
f 29/2/1 22/2/1 28/2/1
f 30/1/2 31/1/2 32/1/2
f 32/1/2 31/1/2 33/1/2
f 30/1/2 32/1/2 34/1/2
f 34/1/2 32/1/2 35/1/2
f 35/1/2 32/1/2 36/1/2
f 32/3/2 33/3/2 37/3/2
f 36/1/2 32/1/2 37/1/2
f 35/1/2 36/1/2 38/1/2
f 38/1/2 36/1/2 39/1/2
f 30/1/2 34/1/2 40/1/2
f 34/3/2 35/3/2 41/3/2
f 40/1/2 34/1/2 41/1/2
f 35/1/2 38/1/2 42/1/2
f 41/3/2 35/3/2 42/3/2
f 38/3/2 39/3/2 43/3/2
f 42/1/2 38/1/2 43/1/2
f 39/1/2 36/1/2 44/1/2
f 43/3/2 39/3/2 44/3/2
f 36/3/2 37/3/2 45/3/2
f 44/1/2 36/1/2 45/1/2
f 37/3/2 33/3/2 46/3/2
f 45/3/2 37/3/2 46/3/2
f 46/3/2 33/3/2 47/3/2
f 42/2/2 43/2/2 48/2/2
f 40/2/2 41/2/2 48/2/2
f 41/2/2 42/2/2 48/2/2
f 43/3/2 44/3/2 49/3/2
f 48/2/2 43/2/2 49/2/2
f 44/2/2 45/2/2 50/2/2
f 49/3/2 44/3/2 50/3/2
f 45/3/2 46/3/2 51/3/2
f 50/2/2 45/2/2 51/2/2
f 46/2/2 47/2/2 52/2/2
f 51/3/2 46/3/2 52/3/2
f 52/2/2 47/2/2 53/2/2
f 57/1/3 55/1/3 54/1/3
f 58/3/3 56/3/3 55/3/3
f 58/1/3 55/1/3 57/1/3
f 59/3/3 56/3/3 58/3/3
f 60/1/3 57/1/3 54/1/3
f 60/3/3 58/3/3 57/3/3
f 61/2/3 59/2/3 58/2/3
f 61/3/3 58/3/3 60/3/3
f 62/1/3 61/1/3 60/1/3
f 63/2/3 59/2/3 61/2/3
f 63/1/3 61/1/3 62/1/3
f 64/2/3 59/2/3 63/2/3
f 65/3/3 63/3/3 62/3/3
f 65/3/3 64/3/3 63/3/3
f 66/3/3 64/3/3 65/3/3
f 67/1/3 60/1/3 54/1/3
f 67/1/3 62/1/3 60/1/3
f 68/3/3 65/3/3 62/3/3
f 68/1/3 62/1/3 67/1/3
f 69/4/3 66/4/3 65/4/3
f 69/3/3 65/3/3 68/3/3
f 70/4/3 66/4/3 69/4/3
f 71/3/3 68/3/3 67/3/3
f 71/1/3 67/1/3 54/1/3
f 71/3/3 69/3/3 68/3/3
f 72/2/3 70/2/3 69/2/3
f 72/3/3 69/3/3 71/3/3
f 73/2/3 70/2/3 72/2/3
f 74/1/3 72/1/3 71/1/3
f 74/4/3 73/4/3 72/4/3
f 75/4/3 73/4/3 74/4/3
f 76/1/3 71/1/3 54/1/3
f 76/1/3 74/1/3 71/1/3
f 77/2/3 75/2/3 74/2/3
f 77/1/3 74/1/3 76/1/3
f 78/2/3 75/2/3 77/2/3
f 79/1/4 80/1/4 83/1/4
f 80/3/4 81/3/4 84/3/4
f 83/1/4 80/1/4 84/1/4
f 81/2/4 82/2/4 85/2/4
f 84/3/4 81/3/4 85/3/4
f 85/2/4 82/2/4 86/2/4
f 83/3/4 84/3/4 87/3/4
f 84/3/4 85/3/4 87/3/4
f 85/3/4 86/3/4 87/3/4
f 87/3/4 86/3/4 88/3/4
f 79/1/4 83/1/4 89/1/4
f 83/3/4 87/3/4 90/3/4
f 89/1/4 83/1/4 90/1/4
f 79/1/4 89/1/4 91/1/4
f 89/3/4 90/3/4 91/3/4
f 90/3/4 87/3/4 92/3/4
f 91/3/4 90/3/4 92/3/4
f 87/4/4 88/4/4 92/4/4
f 92/4/4 88/4/4 93/4/4
f 91/1/4 92/1/4 94/1/4
f 92/2/4 93/2/4 95/2/4
f 94/1/4 92/1/4 95/1/4
f 79/1/4 91/1/4 96/1/4
f 91/1/4 94/1/4 96/1/4
f 94/3/4 95/3/4 97/3/4
f 96/1/4 94/1/4 97/1/4
f 79/1/4 96/1/4 98/1/4
f 96/3/4 97/3/4 99/3/4
f 98/1/4 96/1/4 99/1/4
f 95/2/4 93/2/4 100/2/4
f 99/3/4 97/3/4 100/3/4
f 97/3/4 95/3/4 100/3/4
f 100/2/4 93/2/4 101/2/4
f 104/1/5 103/1/5 102/1/5
f 105/1/5 103/1/5 104/1/5
f 107/2/6 108/2/6 114/2/6
f 108/3/6 109/3/6 114/3/6
f 109/4/6 110/4/6 115/4/6
f 114/3/6 109/3/6 115/3/6
f 111/4/6 112/4/6 116/4/6
f 110/2/6 111/2/6 116/2/6
f 112/2/6 113/2/6 117/2/6
f 116/4/6 112/4/6 117/4/6
f 106/3/6 107/3/6 118/3/6
f 107/2/6 114/2/6 119/2/6
f 118/3/6 107/3/6 119/3/6
f 114/2/6 115/2/6 119/2/6
f 119/2/6 115/2/6 120/2/6
f 120/2/6 115/2/6 121/2/6
f 115/4/6 110/4/6 122/4/6
f 121/2/6 115/2/6 122/2/6
f 110/2/6 116/2/6 123/2/6
f 122/4/6 110/4/6 123/4/6
f 116/2/6 117/2/6 123/2/6
f 119/2/6 120/2/6 124/2/6
f 118/2/6 119/2/6 124/2/6
f 120/4/6 121/4/6 125/4/6
f 124/2/6 120/2/6 125/2/6
f 121/2/6 122/2/6 126/2/6
f 125/4/6 121/4/6 126/4/6
f 122/2/6 123/2/6 126/2/6
f 126/2/6 123/2/6 127/2/6
f 127/2/6 123/2/6 128/2/6
f 123/2/6 117/2/6 129/2/6
f 128/2/6 123/2/6 129/2/6
f 117/2/6 113/2/6 130/2/6
f 129/2/6 117/2/6 130/2/6
f 118/2/6 124/2/6 131/2/6
f 124/4/6 125/4/6 132/4/6
f 131/2/6 124/2/6 132/2/6
f 125/2/6 126/2/6 133/2/6
f 132/4/6 125/4/6 133/4/6
f 126/2/6 127/2/6 133/2/6
f 128/4/6 129/4/6 134/4/6
f 127/3/6 128/3/6 134/3/6
f 129/3/6 130/3/6 135/3/6
f 134/4/6 129/4/6 135/4/6
f 135/3/6 130/3/6 136/3/6
f 136/3/6 130/3/6 137/3/6
f 130/2/6 113/2/6 138/2/6
f 137/3/6 130/3/6 138/3/6
f 131/3/6 132/3/6 139/3/6
f 132/2/6 133/2/6 140/2/6
f 139/3/6 132/3/6 140/3/6
f 134/3/6 135/3/6 141/3/6
f 135/4/6 136/4/6 141/4/6
f 136/3/6 137/3/6 142/3/6
f 141/4/6 136/4/6 142/4/6
f 137/4/6 138/4/6 143/4/6
f 142/3/6 137/3/6 143/3/6
f 138/2/6 113/2/6 144/2/6
f 143/4/6 138/4/6 144/4/6
f 144/2/6 113/2/6 145/2/6
f 134/3/6 141/3/6 146/3/6
f 142/3/6 143/3/6 146/3/6
f 144/3/6 145/3/6 146/3/6
f 143/3/6 144/3/6 146/3/6
f 141/3/6 142/3/6 146/3/6
f 127/3/6 134/3/6 146/3/6
f 146/3/6 145/3/6 147/3/6
f 139/2/6 140/2/6 148/2/6
f 140/2/6 133/2/6 149/2/6
f 148/2/6 140/2/6 149/2/6
f 133/2/6 127/2/6 150/2/6
f 149/2/6 133/2/6 150/2/6
f 127/3/6 146/3/6 151/3/6
f 150/2/6 127/2/6 151/2/6
f 146/4/6 147/4/6 152/4/6
f 151/3/6 146/3/6 152/3/6
f 147/3/6 145/3/6 153/3/6
f 152/4/6 147/4/6 153/4/6
f 153/3/6 145/3/6 154/3/6
f 154/3/6 145/3/6 155/3/6
f 155/3/6 145/3/6 156/3/6
f 148/4/6 149/4/6 157/4/6
f 149/2/6 150/2/6 158/2/6
f 157/4/6 149/4/6 158/4/6
f 158/2/6 150/2/6 159/2/6
f 151/3/6 152/3/6 160/3/6
f 159/2/6 150/2/6 160/2/6
f 150/3/6 151/3/6 160/3/6
f 152/3/6 153/3/6 160/3/6
f 160/3/6 153/3/6 161/3/6
f 153/4/6 154/4/6 162/4/6
f 161/3/6 153/3/6 162/3/6
f 155/2/6 156/2/6 163/2/6
f 163/2/6 156/2/6 164/2/6
f 158/2/6 159/2/6 165/2/6
f 157/2/6 158/2/6 165/2/6
f 159/4/6 160/4/6 166/4/6
f 165/2/6 159/2/6 166/2/6
f 160/3/6 161/3/6 167/3/6
f 166/4/6 160/4/6 167/4/6
f 162/4/6 154/4/6 168/4/6
f 154/3/6 155/3/6 168/3/6
f 161/4/6 162/4/6 168/4/6
f 155/2/6 163/2/6 169/2/6
f 168/3/6 155/3/6 169/3/6
f 163/3/6 164/3/6 170/3/6
f 169/2/6 163/2/6 170/2/6
f 170/3/6 164/3/6 171/3/6
f 157/2/6 165/2/6 172/2/6
f 165/3/6 166/3/6 173/3/6
f 172/2/6 165/2/6 173/2/6
f 166/3/6 167/3/6 173/3/6
f 167/3/6 161/3/6 174/3/6
f 173/3/6 167/3/6 174/3/6
f 161/4/6 168/4/6 174/4/6
f 168/2/6 169/2/6 175/2/6
f 174/4/6 168/4/6 175/4/6
f 170/2/6 171/2/6 175/2/6
f 169/2/6 170/2/6 175/2/6
f 175/2/6 171/2/6 176/2/6
