# MagicaVoxel @ Ephtracy

# group
o 

# material
mtllib Light.mtl
usemtl palette

# normals
vn -1 0 0
vn 1 0 0
vn 0 0 1
vn 0 0 -1
vn 0 -1 0
vn 0 1 0

# texcoords
vt 0.169922 0.5
vt 0.974609 0.5

# verts
v -0.3 0.6 0.2
v -0.3 0.6 0.1
v -0.3 0.6 -0.1
v -0.3 0.6 -0.2
v -0.3 0.8 0.2
v -0.3 0.8 0.1
v -0.3 0.8 -0.1
v -0.3 0.8 -0.2
v -0.2 0 0.1
v -0.2 0 -0.1
v -0.2 0.6 0.1
v -0.2 0.6 -0.1
v -0.2 0.8 0.2
v -0.2 0.8 0.1
v -0.2 0.8 -0.1
v -0.2 0.9 0.2
v -0.2 0.9 -0.1
v -0.1 0.8 0.2
v -0.1 0.8 0.1
v -0.1 0.9 0.2
v -0.1 0.9 0.1
v 0.1 0 0.1
v 0.1 0 -0.1
v 0.1 0.6 0.1
v 0.1 0.6 -0.1
v 0.1 0.6 -0.2
v 0.1 0.8 -0.1
v 0.1 0.8 -0.2
v 0.2 0.6 0.2
v 0.2 0.6 -0.1
v 0.2 0.8 0.2
v 0.2 0.8 0.1
v 0.2 0.8 -0.1
v 0.2 0.9 0.1
v 0.2 0.9 -0.1
v -0.3 0.6 0.2
v -0.3 0.8 0.2
v -0.2 0.6 0.2
v -0.2 0.8 0.2
v -0.2 0.9 0.2
v -0.1 0.8 0.2
v -0.1 0.9 0.2
v 0 0.6 0.2
v 0 0.8 0.2
v 0.2 0.6 0.2
v 0.2 0.8 0.2
v -0.2 0 0.1
v -0.2 0.6 0.1
v -0.1 0.8 0.1
v -0.1 0.9 0.1
v 0 0.6 0.1
v 0 0.8 0.1
v 0.1 0 0.1
v 0.1 0.6 0.1
v 0.2 0.8 0.1
v 0.2 0.9 0.1
v -0.2 0 -0.1
v -0.2 0.6 -0.1
v -0.2 0.8 -0.1
v -0.2 0.9 -0.1
v 0.1 0 -0.1
v 0.1 0.6 -0.1
v 0.1 0.8 -0.1
v 0.2 0.6 -0.1
v 0.2 0.8 -0.1
v 0.2 0.9 -0.1
v -0.3 0.6 -0.2
v -0.3 0.8 -0.2
v -0.2 0.6 -0.2
v -0.2 0.8 -0.2
v 0.1 0.6 -0.2
v 0.1 0.8 -0.2
v -0.2 0 0.1
v 0.1 0 0.1
v -0.2 0 -0.1
v 0.1 0 -0.1
v -0.3 0.6 0.2
v -0.2 0.6 0.2
v 0 0.6 0.2
v 0.2 0.6 0.2
v -0.3 0.6 0.1
v -0.2 0.6 0.1
v 0 0.6 0.1
v 0.1 0.6 0.1
v -0.3 0.6 -0.1
v -0.2 0.6 -0.1
v 0.1 0.6 -0.1
v 0.2 0.6 -0.1
v -0.3 0.6 -0.2
v -0.2 0.6 -0.2
v 0.1 0.6 -0.2
v -0.3 0.8 0.2
v -0.2 0.8 0.2
v -0.1 0.8 0.2
v 0 0.8 0.2
v 0.2 0.8 0.2
v -0.3 0.8 0.1
v -0.2 0.8 0.1
v -0.1 0.8 0.1
v 0 0.8 0.1
v 0.2 0.8 0.1
v -0.3 0.8 -0.1
v -0.2 0.8 -0.1
v 0.1 0.8 -0.1
v -0.3 0.8 -0.2
v -0.2 0.8 -0.2
v 0.1 0.8 -0.2
v -0.2 0.9 0.2
v -0.1 0.9 0.2
v -0.1 0.9 0.1
v 0.2 0.9 0.1
v -0.2 0.9 -0.1
v 0.2 0.9 -0.1

# faces
f 5/1/1 2/1/1 1/1/1
f 6/2/1 3/2/1 2/2/1
f 6/1/1 2/1/1 5/1/1
f 7/1/1 4/1/1 3/1/1
f 7/2/1 3/2/1 6/2/1
f 8/1/1 4/1/1 7/1/1
f 11/2/1 10/2/1 9/2/1
f 12/2/1 10/2/1 11/2/1
f 16/2/1 14/2/1 13/2/1
f 16/2/1 15/2/1 14/2/1
f 17/2/1 15/2/1 16/2/1
f 18/2/2 19/2/2 20/2/2
f 20/2/2 19/2/2 21/2/2
f 22/2/2 23/2/2 24/2/2
f 24/2/2 23/2/2 25/2/2
f 25/2/2 26/2/2 27/2/2
f 27/2/2 26/2/2 28/2/2
f 29/1/2 30/1/2 31/1/2
f 31/1/2 30/1/2 32/1/2
f 32/1/2 30/1/2 33/1/2
f 32/2/2 33/2/2 34/2/2
f 34/2/2 33/2/2 35/2/2
f 38/1/3 37/1/3 36/1/3
f 39/1/3 37/1/3 38/1/3
f 41/2/3 39/2/3 38/2/3
f 41/2/3 40/2/3 39/2/3
f 42/2/3 40/2/3 41/2/3
f 43/2/3 41/2/3 38/2/3
f 44/2/3 41/2/3 43/2/3
f 45/1/3 44/1/3 43/1/3
f 46/1/3 44/1/3 45/1/3
f 51/2/3 48/2/3 47/2/3
f 52/2/3 50/2/3 49/2/3
f 53/2/3 51/2/3 47/2/3
f 54/2/3 51/2/3 53/2/3
f 55/2/3 50/2/3 52/2/3
f 56/2/3 50/2/3 55/2/3
f 57/2/4 58/2/4 61/2/4
f 61/2/4 58/2/4 62/2/4
f 59/2/4 60/2/4 63/2/4
f 62/1/4 63/1/4 64/1/4
f 63/2/4 60/2/4 65/2/4
f 64/1/4 63/1/4 65/1/4
f 65/2/4 60/2/4 66/2/4
f 67/1/4 68/1/4 69/1/4
f 69/1/4 68/1/4 70/1/4
f 69/2/4 70/2/4 71/2/4
f 71/2/4 70/2/4 72/2/4
f 75/2/5 74/2/5 73/2/5
f 76/2/5 74/2/5 75/2/5
f 81/1/5 78/1/5 77/1/5
f 82/2/5 79/2/5 78/2/5
f 82/1/5 78/1/5 81/1/5
f 83/1/5 80/1/5 79/1/5
f 83/2/5 79/2/5 82/2/5
f 84/1/5 80/1/5 83/1/5
f 85/2/5 82/2/5 81/2/5
f 86/2/5 82/2/5 85/2/5
f 87/1/5 80/1/5 84/1/5
f 88/1/5 80/1/5 87/1/5
f 89/1/5 86/1/5 85/1/5
f 90/2/5 87/2/5 86/2/5
f 90/1/5 86/1/5 89/1/5
f 91/2/5 87/2/5 90/2/5
f 92/1/6 93/1/6 97/1/6
f 97/1/6 93/1/6 98/1/6
f 94/2/6 95/2/6 99/2/6
f 95/1/6 96/1/6 100/1/6
f 99/2/6 95/2/6 100/2/6
f 100/1/6 96/1/6 101/1/6
f 97/2/6 98/2/6 102/2/6
f 102/2/6 98/2/6 103/2/6
f 102/1/6 103/1/6 105/1/6
f 103/2/6 104/2/6 106/2/6
f 105/1/6 103/1/6 106/1/6
f 106/2/6 104/2/6 107/2/6
f 108/2/6 109/2/6 110/2/6
f 108/2/6 110/2/6 112/2/6
f 110/2/6 111/2/6 112/2/6
f 112/2/6 111/2/6 113/2/6
